<svg xmlns="http://www.w3.org/2000/svg" viewBox="0 0 192 192" role="img" aria-label="Daily Tracker icon">
  <defs>
    <linearGradient id="bg" x1="0%" y1="0%" x2="100%" y2="100%">
      <stop offset="0%" stop-color="#0f766e" />
      <stop offset="100%" stop-color="#14b8a6" />
    </linearGradient>
    <linearGradient id="card" x1="0%" y1="0%" x2="100%" y2="100%">
      <stop offset="0%" stop-color="#fffaf1" />
      <stop offset="100%" stop-color="#f5efe1" />
    </linearGradient>
  </defs>
  <rect width="192" height="192" rx="44" fill="url(#bg)" />
  <circle cx="150" cy="44" r="24" fill="#fb923c" opacity="0.25" />
  <rect x="36" y="28" width="120" height="136" rx="24" fill="url(#card)" />
  <rect x="52" y="52" width="88" height="14" rx="7" fill="#d1fae5" />
  <rect x="52" y="82" width="56" height="10" rx="5" fill="#cbd5e1" />
  <rect x="52" y="106" width="56" height="10" rx="5" fill="#cbd5e1" />
  <rect x="52" y="130" width="56" height="10" rx="5" fill="#cbd5e1" />
  <circle cx="128" cy="87" r="11" fill="#14b8a6" />
  <path d="M123 87.5l3.2 3.3 6.7-8" fill="none" stroke="#fff" stroke-linecap="round" stroke-linejoin="round" stroke-width="3.5" />
  <circle cx="128" cy="111" r="11" fill="#14b8a6" />
  <path d="M123 111.5l3.2 3.3 6.7-8" fill="none" stroke="#fff" stroke-linecap="round" stroke-linejoin="round" stroke-width="3.5" />
  <circle cx="128" cy="135" r="11" fill="#fb923c" />
  <path d="M123.5 130.5l9 9m0-9l-9 9" fill="none" stroke="#fff" stroke-linecap="round" stroke-width="3.5" />
</svg>
